<?xml version="1.0" encoding="UTF-8"?>
<svg xmlns="http://www.w3.org/2000/svg" width="260mm" height="260mm" viewBox="0 0 260 260">
<title>5도권 투명 표시판 260mm</title>
<desc>회전 원판 위에 고정되는 투명 표시판. 기준선, 관계조, 코드 기능 창을 표시한다.</desc>
<defs>
  <style>
    .cut { fill: none; stroke: #ff5d8f; stroke-width: 0.35; stroke-dasharray: 2 1.5; }
    .score { fill: none; stroke: #9aa4b2; stroke-width: 0.25; stroke-dasharray: 1 1; }
    .guide { fill: none; stroke: #293241; stroke-width: 0.35; }
    .tiny { font-size: 2.8px; fill: #5b6375; font-family: "Malgun Gothic", "Noto Sans KR", Arial, sans-serif; }
  </style>
</defs>
<rect x="0.2" y="0.2" width="259.6" height="259.6" rx="7" fill="#ffffff" fill-opacity="0.04" stroke="#ff5d8f" stroke-width="0.35" stroke-dasharray="2 1.5"/>
<rect x="7" y="7" width="246" height="246" rx="8" fill="none" stroke="#ffd6e7" stroke-width="0.55"/>
<path d="M 151.098 8.996 L 151.611 9.833 L 152.448 10.346 L 151.611 10.859 L 151.098 11.696 L 150.585 10.859 L 149.748 10.346 L 150.585 9.833 Z" fill="#ff8fab" fill-opacity="0.72"/>
<text x="187.873" y="20.673" text-anchor="middle" dominant-baseline="middle" font-family="Malgun Gothic, Noto Sans KR, Arial, sans-serif" font-size="3.15" font-weight="800" fill="#65c3ad" fill-opacity="0.72" transform="rotate(9.298 187.873 20.673)">♪</text>
<path d="M 220.243 40.16 L 221.022 41.431 L 222.293 42.21 L 221.022 42.989 L 220.243 44.26 L 219.464 42.989 L 218.193 42.21 L 219.464 41.431 Z" fill="#8ecae6" fill-opacity="0.72"/>
<text x="238.908" y="76.137" text-anchor="middle" dominant-baseline="middle" font-family="Malgun Gothic, Noto Sans KR, Arial, sans-serif" font-size="3.15" font-weight="800" fill="#f5a742" fill-opacity="0.72" transform="rotate(21.228 238.908 76.137)">♬</text>
<path d="M 252.366 110.185 L 253.012 111.239 L 254.066 111.885 L 253.012 112.531 L 252.366 113.585 L 251.72 112.531 L 250.666 111.885 L 251.72 111.239 Z" fill="#9b7ede" fill-opacity="0.72"/>
<text x="254.183" y="150.722" text-anchor="middle" dominant-baseline="middle" font-family="Malgun Gothic, Noto Sans KR, Arial, sans-serif" font-size="3.15" font-weight="800" fill="#ff8fab" fill-opacity="0.72" transform="rotate(33.158 254.183 150.722)">♪</text>
<path d="M 237.9 184.505 L 238.413 185.342 L 239.25 185.855 L 238.413 186.368 L 237.9 187.205 L 237.387 186.368 L 236.55 185.855 L 237.387 185.342 Z" fill="#65c3ad" fill-opacity="0.72"/>
<text x="217.066" y="217.87" text-anchor="middle" dominant-baseline="middle" font-family="Malgun Gothic, Noto Sans KR, Arial, sans-serif" font-size="3.15" font-weight="800" fill="#8ecae6" fill-opacity="0.72" transform="rotate(45.088 217.066 217.87)">♬</text>
<path d="M 186.848 240.285 L 187.627 241.556 L 188.898 242.335 L 187.627 243.114 L 186.848 244.385 L 186.069 243.114 L 184.798 242.335 L 186.069 241.556 Z" fill="#f5a742" fill-opacity="0.72"/>
<text x="148.897" y="250.022" text-anchor="middle" dominant-baseline="middle" font-family="Malgun Gothic, Noto Sans KR, Arial, sans-serif" font-size="3.15" font-weight="800" fill="#9b7ede" fill-opacity="0.72" transform="rotate(57.018 148.897 250.022)">♪</text>
<path d="M 110.761 250.495 L 111.407 251.549 L 112.461 252.195 L 111.407 252.841 L 110.761 253.895 L 110.115 252.841 L 109.061 252.195 L 110.115 251.549 Z" fill="#ff8fab" fill-opacity="0.72"/>
<text x="73.152" y="242.335" text-anchor="middle" dominant-baseline="middle" font-family="Malgun Gothic, Noto Sans KR, Arial, sans-serif" font-size="3.15" font-weight="800" fill="#65c3ad" fill-opacity="0.72" transform="rotate(68.947 73.152 242.335)">♬</text>
<path d="M 44.482 214.957 L 44.995 215.794 L 45.832 216.307 L 44.995 216.82 L 44.482 217.657 L 43.969 216.82 L 43.132 216.307 L 43.969 215.794 Z" fill="#8ecae6" fill-opacity="0.72"/>
<text x="20.146" y="186.866" text-anchor="middle" dominant-baseline="middle" font-family="Malgun Gothic, Noto Sans KR, Arial, sans-serif" font-size="3.15" font-weight="800" fill="#f5a742" fill-opacity="0.72" transform="rotate(80.877 20.146 186.866)">♪</text>
<path d="M 5.817 148.672 L 6.596 149.943 L 7.867 150.722 L 6.596 151.501 L 5.817 152.772 L 5.038 151.501 L 3.767 150.722 L 5.038 149.943 Z" fill="#9b7ede" fill-opacity="0.72"/>
<text x="9.81" y="112.207" text-anchor="middle" dominant-baseline="middle" font-family="Malgun Gothic, Noto Sans KR, Arial, sans-serif" font-size="3.15" font-weight="800" fill="#ff8fab" fill-opacity="0.72" transform="rotate(92.807 9.81 112.207)">♬</text>
<path d="M 19.12 73.462 L 19.766 74.516 L 20.82 75.162 L 19.766 75.808 L 19.12 76.862 L 18.474 75.808 L 17.42 75.162 L 18.474 74.516 Z" fill="#65c3ad" fill-opacity="0.72"/>
<text x="39.757" y="42.21" text-anchor="middle" dominant-baseline="middle" font-family="Malgun Gothic, Noto Sans KR, Arial, sans-serif" font-size="3.15" font-weight="800" fill="#8ecae6" fill-opacity="0.72" transform="rotate(104.737 39.757 42.21)">♪</text>
<path d="M 73.156 21.267 L 73.669 22.104 L 74.506 22.617 L 73.669 23.13 L 73.156 23.967 L 72.643 23.13 L 71.806 22.617 L 72.643 22.104 Z" fill="#f5a742" fill-opacity="0.72"/>
<text x="108.52" y="8.179" text-anchor="middle" dominant-baseline="middle" font-family="Malgun Gothic, Noto Sans KR, Arial, sans-serif" font-size="3.15" font-weight="800" fill="#9b7ede" fill-opacity="0.72" transform="rotate(116.667 108.52 8.179)">♬</text>
<circle cx="130" cy="130" r="115" fill="none" stroke="#293241" stroke-width="0.32"/>
<circle cx="130" cy="130" r="84" fill="none" stroke="#9aa4b2" stroke-width="0.25" stroke-dasharray="1.2 1.2"/>
<circle cx="130" cy="130" r="56" fill="none" stroke="#9aa4b2" stroke-width="0.25" stroke-dasharray="1.2 1.2"/>
<circle cx="130" cy="130" r="28" fill="none" stroke="#9aa4b2" stroke-width="0.25" stroke-dasharray="1.2 1.2"/>
<line x1="130" y1="109" x2="130" y2="15" stroke="#ff5d8f" stroke-width="0.85" />
<g>
    <rect x="117" y="7.2" width="26" height="7" rx="3.5" fill="#fff0f6" fill-opacity="1" stroke="#ff8fab" stroke-width="0.35"/>
    <text text-anchor="middle" dominant-baseline="middle" fill="#d6336c" font-family="Malgun Gothic, Noto Sans KR, Arial, sans-serif" ><tspan x="130" y="10.85" font-size="3.4" font-weight="900">기준선</tspan></text>
  </g>
<g>
    <rect x="108" y="22.5" width="44" height="17" rx="4" fill="#ffffff" fill-opacity="0.64" stroke="#0f766e" stroke-width="0.8"/>
    <rect x="109.1" y="23.6" width="41.8" height="14.8" rx="3.2" fill="none" stroke="#ffffff" stroke-width="0.45"/>
    <text text-anchor="middle" dominant-baseline="middle" fill="#0f766e" font-family="Malgun Gothic, Noto Sans KR, Arial, sans-serif" ><tspan x="130" y="18.7" font-size="2.75" font-weight="800">현재 장조</tspan></text>
    <text text-anchor="middle" dominant-baseline="middle" fill="#0f766e" font-family="Malgun Gothic, Noto Sans KR, Arial, sans-serif" ><tspan x="130" y="43.2" font-size="3.2" font-weight="900">I</tspan></text>
  </g>
<g>
    <rect x="110" y="52.5" width="40" height="15" rx="4" fill="#ffffff" fill-opacity="0.64" stroke="#7c3aed" stroke-width="0.8"/>
    <rect x="111.1" y="53.6" width="37.8" height="12.8" rx="3.2" fill="none" stroke="#ffffff" stroke-width="0.45"/>
    <text text-anchor="middle" dominant-baseline="middle" fill="#7c3aed" font-family="Malgun Gothic, Noto Sans KR, Arial, sans-serif" ><tspan x="130" y="48.7" font-size="2.75" font-weight="800">관계단조</tspan></text>
    <text text-anchor="middle" dominant-baseline="middle" fill="#7c3aed" font-family="Malgun Gothic, Noto Sans KR, Arial, sans-serif" ><tspan x="130" y="71.2" font-size="3.2" font-weight="900">vi</tspan></text>
  </g>
<g>
    <rect x="111" y="81" width="38" height="14" rx="4" fill="#ffffff" fill-opacity="0.64" stroke="#c05621" stroke-width="0.8"/>
    <rect x="112.1" y="82.1" width="35.8" height="11.8" rx="3.2" fill="none" stroke="#ffffff" stroke-width="0.45"/>
    <text text-anchor="middle" dominant-baseline="middle" fill="#c05621" font-family="Malgun Gothic, Noto Sans KR, Arial, sans-serif" ><tspan x="130" y="77.2" font-size="2.75" font-weight="800">조표</tspan></text>
    
  </g>
<g>
    <rect x="63.5" y="37.513" width="34" height="13.5" rx="4" fill="#ffffff" fill-opacity="0.64" stroke="#2f80ed" stroke-width="0.8"/>
    <rect x="64.6" y="38.613" width="31.8" height="11.3" rx="3.2" fill="none" stroke="#ffffff" stroke-width="0.45"/>
    <text text-anchor="middle" dominant-baseline="middle" fill="#2f80ed" font-family="Malgun Gothic, Noto Sans KR, Arial, sans-serif" ><tspan x="80.5" y="33.713" font-size="2.75" font-weight="800">버금딸림조</tspan></text>
    <text text-anchor="middle" dominant-baseline="middle" fill="#2f80ed" font-family="Malgun Gothic, Noto Sans KR, Arial, sans-serif" ><tspan x="80.5" y="54.713" font-size="3.2" font-weight="900">IV</tspan></text>
  </g>
<g>
    <rect x="163.5" y="37.513" width="32" height="13.5" rx="4" fill="#ffffff" fill-opacity="0.64" stroke="#d6336c" stroke-width="0.8"/>
    <rect x="164.6" y="38.613" width="29.8" height="11.3" rx="3.2" fill="none" stroke="#ffffff" stroke-width="0.45"/>
    <text text-anchor="middle" dominant-baseline="middle" fill="#d6336c" font-family="Malgun Gothic, Noto Sans KR, Arial, sans-serif" ><tspan x="179.5" y="33.713" font-size="2.75" font-weight="800">딸림조</tspan></text>
    <text text-anchor="middle" dominant-baseline="middle" fill="#d6336c" font-family="Malgun Gothic, Noto Sans KR, Arial, sans-serif" ><tspan x="179.5" y="54.713" font-size="3.2" font-weight="900">V</tspan></text>
  </g>
<g>
    <rect x="199.737" y="73.75" width="32" height="13.5" rx="4" fill="#ffffff" fill-opacity="0.64" stroke="#8b5cf6" stroke-width="0.8"/>
    <rect x="200.837" y="74.85" width="29.8" height="11.3" rx="3.2" fill="none" stroke="#ffffff" stroke-width="0.45"/>
    <text text-anchor="middle" dominant-baseline="middle" fill="#8b5cf6" font-family="Malgun Gothic, Noto Sans KR, Arial, sans-serif" ><tspan x="215.737" y="69.95" font-size="2.75" font-weight="800">2도 단화음</tspan></text>
    <text text-anchor="middle" dominant-baseline="middle" fill="#8b5cf6" font-family="Malgun Gothic, Noto Sans KR, Arial, sans-serif" ><tspan x="215.737" y="90.95" font-size="3.2" font-weight="900">ii</tspan></text>
  </g>
<g>
    <rect x="213" y="123.25" width="32" height="13.5" rx="4" fill="#ffffff" fill-opacity="0.64" stroke="#129575" stroke-width="0.8"/>
    <rect x="214.1" y="124.35" width="29.8" height="11.3" rx="3.2" fill="none" stroke="#ffffff" stroke-width="0.45"/>
    <text text-anchor="middle" dominant-baseline="middle" fill="#129575" font-family="Malgun Gothic, Noto Sans KR, Arial, sans-serif" ><tspan x="229" y="119.45" font-size="2.75" font-weight="800">6도 단화음</tspan></text>
    <text text-anchor="middle" dominant-baseline="middle" fill="#129575" font-family="Malgun Gothic, Noto Sans KR, Arial, sans-serif" ><tspan x="229" y="140.45" font-size="3.2" font-weight="900">vi</tspan></text>
  </g>
<g>
    <rect x="199.737" y="172.75" width="32" height="13.5" rx="4" fill="#ffffff" fill-opacity="0.64" stroke="#b45309" stroke-width="0.8"/>
    <rect x="200.837" y="173.85" width="29.8" height="11.3" rx="3.2" fill="none" stroke="#ffffff" stroke-width="0.45"/>
    <text text-anchor="middle" dominant-baseline="middle" fill="#b45309" font-family="Malgun Gothic, Noto Sans KR, Arial, sans-serif" ><tspan x="215.737" y="168.95" font-size="2.75" font-weight="800">3도 단화음</tspan></text>
    <text text-anchor="middle" dominant-baseline="middle" fill="#b45309" font-family="Malgun Gothic, Noto Sans KR, Arial, sans-serif" ><tspan x="215.737" y="189.95" font-size="3.2" font-weight="900">iii</tspan></text>
  </g>
<g>
    <rect x="163" y="208.987" width="33" height="13.5" rx="4" fill="#ffffff" fill-opacity="0.64" stroke="#52616b" stroke-width="0.8"/>
    <rect x="164.1" y="210.087" width="30.8" height="11.3" rx="3.2" fill="none" stroke="#ffffff" stroke-width="0.45"/>
    <text text-anchor="middle" dominant-baseline="middle" fill="#52616b" font-family="Malgun Gothic, Noto Sans KR, Arial, sans-serif" ><tspan x="179.5" y="205.187" font-size="2.75" font-weight="800">이끔감화음</tspan></text>
    <text text-anchor="middle" dominant-baseline="middle" fill="#52616b" font-family="Malgun Gothic, Noto Sans KR, Arial, sans-serif" ><tspan x="179.5" y="226.187" font-size="3.2" font-weight="900">vii°</tspan></text>
  </g>
<g>
    <rect x="39.5" y="123.25" width="41" height="13.5" rx="4" fill="#ffffff" fill-opacity="0.64" stroke="#d97706" stroke-width="0.8"/>
    <rect x="40.6" y="124.35" width="38.8" height="11.3" rx="3.2" fill="none" stroke="#ffffff" stroke-width="0.45"/>
    <text text-anchor="middle" dominant-baseline="middle" fill="#d97706" font-family="Malgun Gothic, Noto Sans KR, Arial, sans-serif" ><tspan x="60" y="119.45" font-size="2.75" font-weight="800">같은 으뜸음 단조</tspan></text>
    <text text-anchor="middle" dominant-baseline="middle" fill="#d97706" font-family="Malgun Gothic, Noto Sans KR, Arial, sans-serif" ><tspan x="60" y="140.45" font-size="3.2" font-weight="900">동단조</tspan></text>
  </g>
<line x1="100.624" y1="20.367" x2="99.201" y2="15.055" stroke="#293241" stroke-width="0.35" />
<line x1="159.376" y1="20.367" x2="160.799" y2="15.055" stroke="#293241" stroke-width="0.35" />
<line x1="210.257" y1="49.743" x2="214.146" y2="45.854" stroke="#293241" stroke-width="0.35" />
<line x1="239.633" y1="100.624" x2="244.945" y2="99.201" stroke="#293241" stroke-width="0.35" />
<line x1="239.633" y1="159.376" x2="244.945" y2="160.799" stroke="#293241" stroke-width="0.35" />
<line x1="210.257" y1="210.257" x2="214.146" y2="214.146" stroke="#293241" stroke-width="0.35" />
<line x1="159.376" y1="239.633" x2="160.799" y2="244.945" stroke="#293241" stroke-width="0.35" />
<line x1="100.624" y1="239.633" x2="99.201" y2="244.945" stroke="#293241" stroke-width="0.35" />
<line x1="49.743" y1="210.257" x2="45.854" y2="214.146" stroke="#293241" stroke-width="0.35" />
<line x1="20.367" y1="159.376" x2="15.055" y2="160.799" stroke="#293241" stroke-width="0.35" />
<line x1="20.367" y1="100.624" x2="15.055" y2="99.201" stroke="#293241" stroke-width="0.35" />
<line x1="49.743" y1="49.743" x2="45.854" y2="45.854" stroke="#293241" stroke-width="0.35" />
<circle cx="130" cy="130" r="2.5" fill="#ffffff" stroke="#ff5d8f" stroke-width="0.4"/>
<text text-anchor="middle" dominant-baseline="middle" fill="#d6336c" font-family="Malgun Gothic, Noto Sans KR, Arial, sans-serif" ><tspan x="130" y="138.2" font-size="2.8" font-weight="650">중앙 타공 5mm</tspan></text>
<g>
    <rect x="41" y="240.25" width="178" height="7.5" rx="3.75" fill="#fff7fb" fill-opacity="1" stroke="#ffc2d1" stroke-width="0.35"/>
    <text text-anchor="middle" dominant-baseline="middle" fill="#5b6375" font-family="Malgun Gothic, Noto Sans KR, Arial, sans-serif" ><tspan x="130" y="244.15" font-size="3.3" font-weight="800">투명 PET 0.5-0.7mm 권장 / 원판 위에 고정</tspan></text>
  </g>
<text text-anchor="middle" dominant-baseline="middle" fill="#d6336c" font-family="Malgun Gothic, Noto Sans KR, Arial, sans-serif" ><tspan x="31" y="251" font-size="3.2" font-weight="700">260 x 260mm</tspan></text>
<text text-anchor="middle" dominant-baseline="middle" fill="#5b6375" font-family="Malgun Gothic, Noto Sans KR, Arial, sans-serif" ><tspan x="229" y="251" font-size="3.2" font-weight="700">원판 지름 230mm</tspan></text>
</svg>