<?xml version="1.0" encoding="UTF-8"?>
<svg xmlns="http://www.w3.org/2000/svg" width="210mm" height="297mm" viewBox="0 0 210 297">
<title>5도권 중급 미션 카드 front</title>
<desc>63 x 88mm 카드 9장 A4 배치.</desc>
<defs>
  <style>
    .cut { fill: none; stroke: #ff5d8f; stroke-width: 0.35; stroke-dasharray: 2 1.5; }
    .score { fill: none; stroke: #9aa4b2; stroke-width: 0.25; stroke-dasharray: 1 1; }
    .guide { fill: none; stroke: #293241; stroke-width: 0.35; }
    .tiny { font-size: 2.8px; fill: #5b6375; font-family: "Malgun Gothic", "Noto Sans KR", Arial, sans-serif; }
  </style>
</defs>
<rect x="0" y="0" width="210" height="297" fill="#ffffff"/>
<g>
    <rect x="59.5" y="3.6" width="91" height="7.2" rx="3.6" fill="#f2f8ff" fill-opacity="1" stroke="#8ecae6" stroke-width="0.35"/>
    <text text-anchor="middle" dominant-baseline="middle" fill="#2f80ed" font-family="Malgun Gothic, Noto Sans KR, Arial, sans-serif" ><tspan x="105" y="7.35" font-size="3.1" font-weight="800">5도권 회전판 중급 미션 카드 앞면</tspan></text>
  </g>
<rect x="6.5" y="12.5" width="63" height="88" rx="6" fill="#e5f2ff" stroke="#293241" stroke-width="0.32"/>
<rect x="8.9" y="14.9" width="58.2" height="83.2" rx="4.6" fill="none" stroke="#ffffff" stroke-width="1.15"/>
<rect x="10.7" y="16.7" width="54.6" height="79.6" rx="3.8" fill="none" stroke="#8ecae6" stroke-width="0.45"/>
<line x1="6.5" y1="12.5" x2="69.5" y2="12.5" stroke="#ff5d8f" stroke-width="0.25" stroke-dasharray="1 1"/>
<line x1="6.5" y1="100.5" x2="69.5" y2="100.5" stroke="#ff5d8f" stroke-width="0.25" stroke-dasharray="1 1"/>
<line x1="6.5" y1="12.5" x2="6.5" y2="100.5" stroke="#ff5d8f" stroke-width="0.25" stroke-dasharray="1 1"/>
<line x1="69.5" y1="12.5" x2="69.5" y2="100.5" stroke="#ff5d8f" stroke-width="0.25" stroke-dasharray="1 1"/>
<path d="M 14.5 82.95 L 15.089 83.911 L 16.05 84.5 L 15.089 85.089 L 14.5 86.05 L 13.911 85.089 L 12.95 84.5 L 13.911 83.911 Z" fill="#8ecae6" fill-opacity="0.82"/>
<text x="61.5" y="87.5" text-anchor="middle" dominant-baseline="middle" font-family="Malgun Gothic, Noto Sans KR, Arial, sans-serif" font-size="4.5" font-weight="800" fill="#8ecae6" fill-opacity="0.86" transform="rotate(-10 61.5 87.5)">♪</text>
<rect x="12.5" y="19.5" width="31" height="7.6" rx="3.8" fill="#ffffff" fill-opacity="0.8" stroke="#8ecae6" stroke-width="0.25"/>
<text text-anchor="start" dominant-baseline="middle" fill="#2f80ed" font-family="Malgun Gothic, Noto Sans KR, Arial, sans-serif" ><tspan x="15.9" y="23.4" font-size="3.1" font-weight="850">중급 01</tspan></text>
<circle cx="57.5" cy="24.5" r="7.3" fill="#ffffff" fill-opacity="0.82" stroke="#2f80ed" stroke-width="0.32"/>
<path d="M 51.4 18.15 L 51.951 19.049 L 52.85 19.6 L 51.951 20.151 L 51.4 21.05 L 50.849 20.151 L 49.95 19.6 L 50.849 19.049 Z" fill="#8ecae6" fill-opacity="0.8"/>
<text text-anchor="middle" dominant-baseline="middle" fill="#2f80ed" font-family="Malgun Gothic, Noto Sans KR, Arial, sans-serif" ><tspan x="57.5" y="24.5" font-size="3" font-weight="900">5도</tspan></text>
<rect x="14.7" y="36.5" width="46.6" height="34" rx="5.5" fill="#ffffff" fill-opacity="0.5" stroke="#ffffff" stroke-width="0.35"/>
<text text-anchor="middle" dominant-baseline="middle" fill="#293241" font-family="Malgun Gothic, Noto Sans KR, Arial, sans-serif" ><tspan x="38" y="47.95" font-size="5.1" font-weight="800">D 장조의 딸림조와</tspan><tspan x="38" y="55.05" font-size="5.1" font-weight="800">버금딸림조는?</tspan></text>
<rect x="15.5" y="80.5" width="45" height="10" rx="5" fill="#ffffff" fill-opacity="0.85" stroke="#2f80ed" stroke-width="0.3"/>
<text text-anchor="middle" dominant-baseline="middle" fill="#2f80ed" font-family="Malgun Gothic, Noto Sans KR, Arial, sans-serif" ><tspan x="38" y="85.7" font-size="3.1" font-weight="750">회전판으로 확인</tspan></text>
<rect x="73.5" y="12.5" width="63" height="88" rx="6" fill="#e5f2ff" stroke="#293241" stroke-width="0.32"/>
<rect x="75.9" y="14.9" width="58.2" height="83.2" rx="4.6" fill="none" stroke="#ffffff" stroke-width="1.15"/>
<rect x="77.7" y="16.7" width="54.6" height="79.6" rx="3.8" fill="none" stroke="#8ecae6" stroke-width="0.45"/>
<line x1="73.5" y1="12.5" x2="136.5" y2="12.5" stroke="#ff5d8f" stroke-width="0.25" stroke-dasharray="1 1"/>
<line x1="73.5" y1="100.5" x2="136.5" y2="100.5" stroke="#ff5d8f" stroke-width="0.25" stroke-dasharray="1 1"/>
<line x1="73.5" y1="12.5" x2="73.5" y2="100.5" stroke="#ff5d8f" stroke-width="0.25" stroke-dasharray="1 1"/>
<line x1="136.5" y1="12.5" x2="136.5" y2="100.5" stroke="#ff5d8f" stroke-width="0.25" stroke-dasharray="1 1"/>
<path d="M 81.5 82.95 L 82.089 83.911 L 83.05 84.5 L 82.089 85.089 L 81.5 86.05 L 80.911 85.089 L 79.95 84.5 L 80.911 83.911 Z" fill="#8ecae6" fill-opacity="0.82"/>
<text x="128.5" y="87.5" text-anchor="middle" dominant-baseline="middle" font-family="Malgun Gothic, Noto Sans KR, Arial, sans-serif" font-size="4.5" font-weight="800" fill="#8ecae6" fill-opacity="0.86" transform="rotate(12 128.5 87.5)">♬</text>
<rect x="79.5" y="19.5" width="31" height="7.6" rx="3.8" fill="#ffffff" fill-opacity="0.8" stroke="#8ecae6" stroke-width="0.25"/>
<text text-anchor="start" dominant-baseline="middle" fill="#2f80ed" font-family="Malgun Gothic, Noto Sans KR, Arial, sans-serif" ><tspan x="82.9" y="23.4" font-size="3.1" font-weight="850">중급 02</tspan></text>
<circle cx="124.5" cy="24.5" r="7.3" fill="#ffffff" fill-opacity="0.82" stroke="#2f80ed" stroke-width="0.32"/>
<path d="M 118.4 18.15 L 118.951 19.049 L 119.85 19.6 L 118.951 20.151 L 118.4 21.05 L 117.849 20.151 L 116.95 19.6 L 117.849 19.049 Z" fill="#8ecae6" fill-opacity="0.8"/>
<text text-anchor="middle" dominant-baseline="middle" fill="#2f80ed" font-family="Malgun Gothic, Noto Sans KR, Arial, sans-serif" ><tspan x="124.5" y="24.5" font-size="3" font-weight="900">5도</tspan></text>
<rect x="81.7" y="36.5" width="46.6" height="34" rx="5.5" fill="#ffffff" fill-opacity="0.5" stroke="#ffffff" stroke-width="0.35"/>
<text text-anchor="middle" dominant-baseline="middle" fill="#293241" font-family="Malgun Gothic, Noto Sans KR, Arial, sans-serif" ><tspan x="105" y="47.95" font-size="5.1" font-weight="800">E♭ 장조의 같은</tspan><tspan x="105" y="55.05" font-size="5.1" font-weight="800">으뜸음 단조는?</tspan></text>
<rect x="82.5" y="80.5" width="45" height="10" rx="5" fill="#ffffff" fill-opacity="0.85" stroke="#2f80ed" stroke-width="0.3"/>
<text text-anchor="middle" dominant-baseline="middle" fill="#2f80ed" font-family="Malgun Gothic, Noto Sans KR, Arial, sans-serif" ><tspan x="105" y="85.7" font-size="3.1" font-weight="750">회전판으로 확인</tspan></text>
<rect x="140.5" y="12.5" width="63" height="88" rx="6" fill="#e5f2ff" stroke="#293241" stroke-width="0.32"/>
<rect x="142.9" y="14.9" width="58.2" height="83.2" rx="4.6" fill="none" stroke="#ffffff" stroke-width="1.15"/>
<rect x="144.7" y="16.7" width="54.6" height="79.6" rx="3.8" fill="none" stroke="#8ecae6" stroke-width="0.45"/>
<line x1="140.5" y1="12.5" x2="203.5" y2="12.5" stroke="#ff5d8f" stroke-width="0.25" stroke-dasharray="1 1"/>
<line x1="140.5" y1="100.5" x2="203.5" y2="100.5" stroke="#ff5d8f" stroke-width="0.25" stroke-dasharray="1 1"/>
<line x1="140.5" y1="12.5" x2="140.5" y2="100.5" stroke="#ff5d8f" stroke-width="0.25" stroke-dasharray="1 1"/>
<line x1="203.5" y1="12.5" x2="203.5" y2="100.5" stroke="#ff5d8f" stroke-width="0.25" stroke-dasharray="1 1"/>
<path d="M 148.5 82.95 L 149.089 83.911 L 150.05 84.5 L 149.089 85.089 L 148.5 86.05 L 147.911 85.089 L 146.95 84.5 L 147.911 83.911 Z" fill="#8ecae6" fill-opacity="0.82"/>
<text x="195.5" y="87.5" text-anchor="middle" dominant-baseline="middle" font-family="Malgun Gothic, Noto Sans KR, Arial, sans-serif" font-size="4.5" font-weight="800" fill="#8ecae6" fill-opacity="0.86" transform="rotate(-10 195.5 87.5)">♪</text>
<rect x="146.5" y="19.5" width="31" height="7.6" rx="3.8" fill="#ffffff" fill-opacity="0.8" stroke="#8ecae6" stroke-width="0.25"/>
<text text-anchor="start" dominant-baseline="middle" fill="#2f80ed" font-family="Malgun Gothic, Noto Sans KR, Arial, sans-serif" ><tspan x="149.9" y="23.4" font-size="3.1" font-weight="850">중급 03</tspan></text>
<circle cx="191.5" cy="24.5" r="7.3" fill="#ffffff" fill-opacity="0.82" stroke="#2f80ed" stroke-width="0.32"/>
<path d="M 185.4 18.15 L 185.951 19.049 L 186.85 19.6 L 185.951 20.151 L 185.4 21.05 L 184.849 20.151 L 183.95 19.6 L 184.849 19.049 Z" fill="#8ecae6" fill-opacity="0.8"/>
<text text-anchor="middle" dominant-baseline="middle" fill="#2f80ed" font-family="Malgun Gothic, Noto Sans KR, Arial, sans-serif" ><tspan x="191.5" y="24.5" font-size="3" font-weight="900">5도</tspan></text>
<rect x="148.7" y="36.5" width="46.6" height="34" rx="5.5" fill="#ffffff" fill-opacity="0.5" stroke="#ffffff" stroke-width="0.35"/>
<text text-anchor="middle" dominant-baseline="middle" fill="#293241" font-family="Malgun Gothic, Noto Sans KR, Arial, sans-serif" ><tspan x="172" y="44.4" font-size="5.1" font-weight="800">B♭ 장조에서 C</tspan><tspan x="172" y="51.5" font-size="5.1" font-weight="800">장조로 조옮김: 몇</tspan><tspan x="172" y="58.6" font-size="5.1" font-weight="800">칸?</tspan></text>
<rect x="149.5" y="80.5" width="45" height="10" rx="5" fill="#ffffff" fill-opacity="0.85" stroke="#2f80ed" stroke-width="0.3"/>
<text text-anchor="middle" dominant-baseline="middle" fill="#2f80ed" font-family="Malgun Gothic, Noto Sans KR, Arial, sans-serif" ><tspan x="172" y="85.7" font-size="3.1" font-weight="750">회전판으로 확인</tspan></text>
<rect x="6.5" y="104.5" width="63" height="88" rx="6" fill="#e5f2ff" stroke="#293241" stroke-width="0.32"/>
<rect x="8.9" y="106.9" width="58.2" height="83.2" rx="4.6" fill="none" stroke="#ffffff" stroke-width="1.15"/>
<rect x="10.7" y="108.7" width="54.6" height="79.6" rx="3.8" fill="none" stroke="#8ecae6" stroke-width="0.45"/>
<line x1="6.5" y1="104.5" x2="69.5" y2="104.5" stroke="#ff5d8f" stroke-width="0.25" stroke-dasharray="1 1"/>
<line x1="6.5" y1="192.5" x2="69.5" y2="192.5" stroke="#ff5d8f" stroke-width="0.25" stroke-dasharray="1 1"/>
<line x1="6.5" y1="104.5" x2="6.5" y2="192.5" stroke="#ff5d8f" stroke-width="0.25" stroke-dasharray="1 1"/>
<line x1="69.5" y1="104.5" x2="69.5" y2="192.5" stroke="#ff5d8f" stroke-width="0.25" stroke-dasharray="1 1"/>
<path d="M 14.5 174.95 L 15.089 175.911 L 16.05 176.5 L 15.089 177.089 L 14.5 178.05 L 13.911 177.089 L 12.95 176.5 L 13.911 175.911 Z" fill="#8ecae6" fill-opacity="0.82"/>
<text x="61.5" y="179.5" text-anchor="middle" dominant-baseline="middle" font-family="Malgun Gothic, Noto Sans KR, Arial, sans-serif" font-size="4.5" font-weight="800" fill="#8ecae6" fill-opacity="0.86" transform="rotate(12 61.5 179.5)">♬</text>
<rect x="12.5" y="111.5" width="31" height="7.6" rx="3.8" fill="#ffffff" fill-opacity="0.8" stroke="#8ecae6" stroke-width="0.25"/>
<text text-anchor="start" dominant-baseline="middle" fill="#2f80ed" font-family="Malgun Gothic, Noto Sans KR, Arial, sans-serif" ><tspan x="15.9" y="115.4" font-size="3.1" font-weight="850">중급 04</tspan></text>
<circle cx="57.5" cy="116.5" r="7.3" fill="#ffffff" fill-opacity="0.82" stroke="#2f80ed" stroke-width="0.32"/>
<path d="M 51.4 110.15 L 51.951 111.049 L 52.85 111.6 L 51.951 112.151 L 51.4 113.05 L 50.849 112.151 L 49.95 111.6 L 50.849 111.049 Z" fill="#8ecae6" fill-opacity="0.8"/>
<text text-anchor="middle" dominant-baseline="middle" fill="#2f80ed" font-family="Malgun Gothic, Noto Sans KR, Arial, sans-serif" ><tspan x="57.5" y="116.5" font-size="3" font-weight="900">5도</tspan></text>
<rect x="14.7" y="128.5" width="46.6" height="34" rx="5.5" fill="#ffffff" fill-opacity="0.5" stroke="#ffffff" stroke-width="0.35"/>
<text text-anchor="middle" dominant-baseline="middle" fill="#293241" font-family="Malgun Gothic, Noto Sans KR, Arial, sans-serif" ><tspan x="38" y="139.95" font-size="5.1" font-weight="800">G 장조의 관계단조와</tspan><tspan x="38" y="147.05" font-size="5.1" font-weight="800">같은 으뜸음 단조는?</tspan></text>
<rect x="15.5" y="172.5" width="45" height="10" rx="5" fill="#ffffff" fill-opacity="0.85" stroke="#2f80ed" stroke-width="0.3"/>
<text text-anchor="middle" dominant-baseline="middle" fill="#2f80ed" font-family="Malgun Gothic, Noto Sans KR, Arial, sans-serif" ><tspan x="38" y="177.7" font-size="3.1" font-weight="750">회전판으로 확인</tspan></text>
<rect x="73.5" y="104.5" width="63" height="88" rx="6" fill="#e5f2ff" stroke="#293241" stroke-width="0.32"/>
<rect x="75.9" y="106.9" width="58.2" height="83.2" rx="4.6" fill="none" stroke="#ffffff" stroke-width="1.15"/>
<rect x="77.7" y="108.7" width="54.6" height="79.6" rx="3.8" fill="none" stroke="#8ecae6" stroke-width="0.45"/>
<line x1="73.5" y1="104.5" x2="136.5" y2="104.5" stroke="#ff5d8f" stroke-width="0.25" stroke-dasharray="1 1"/>
<line x1="73.5" y1="192.5" x2="136.5" y2="192.5" stroke="#ff5d8f" stroke-width="0.25" stroke-dasharray="1 1"/>
<line x1="73.5" y1="104.5" x2="73.5" y2="192.5" stroke="#ff5d8f" stroke-width="0.25" stroke-dasharray="1 1"/>
<line x1="136.5" y1="104.5" x2="136.5" y2="192.5" stroke="#ff5d8f" stroke-width="0.25" stroke-dasharray="1 1"/>
<path d="M 81.5 174.95 L 82.089 175.911 L 83.05 176.5 L 82.089 177.089 L 81.5 178.05 L 80.911 177.089 L 79.95 176.5 L 80.911 175.911 Z" fill="#8ecae6" fill-opacity="0.82"/>
<text x="128.5" y="179.5" text-anchor="middle" dominant-baseline="middle" font-family="Malgun Gothic, Noto Sans KR, Arial, sans-serif" font-size="4.5" font-weight="800" fill="#8ecae6" fill-opacity="0.86" transform="rotate(-10 128.5 179.5)">♪</text>
<rect x="79.5" y="111.5" width="31" height="7.6" rx="3.8" fill="#ffffff" fill-opacity="0.8" stroke="#8ecae6" stroke-width="0.25"/>
<text text-anchor="start" dominant-baseline="middle" fill="#2f80ed" font-family="Malgun Gothic, Noto Sans KR, Arial, sans-serif" ><tspan x="82.9" y="115.4" font-size="3.1" font-weight="850">중급 05</tspan></text>
<circle cx="124.5" cy="116.5" r="7.3" fill="#ffffff" fill-opacity="0.82" stroke="#2f80ed" stroke-width="0.32"/>
<path d="M 118.4 110.15 L 118.951 111.049 L 119.85 111.6 L 118.951 112.151 L 118.4 113.05 L 117.849 112.151 L 116.95 111.6 L 117.849 111.049 Z" fill="#8ecae6" fill-opacity="0.8"/>
<text text-anchor="middle" dominant-baseline="middle" fill="#2f80ed" font-family="Malgun Gothic, Noto Sans KR, Arial, sans-serif" ><tspan x="124.5" y="116.5" font-size="3" font-weight="900">5도</tspan></text>
<rect x="81.7" y="128.5" width="46.6" height="34" rx="5.5" fill="#ffffff" fill-opacity="0.5" stroke="#ffffff" stroke-width="0.35"/>
<text text-anchor="middle" dominant-baseline="middle" fill="#293241" font-family="Malgun Gothic, Noto Sans KR, Arial, sans-serif" ><tspan x="105" y="139.95" font-size="5.1" font-weight="800">A 장조의 IV,</tspan><tspan x="105" y="147.05" font-size="5.1" font-weight="800">V를 찾으세요.</tspan></text>
<rect x="82.5" y="172.5" width="45" height="10" rx="5" fill="#ffffff" fill-opacity="0.85" stroke="#2f80ed" stroke-width="0.3"/>
<text text-anchor="middle" dominant-baseline="middle" fill="#2f80ed" font-family="Malgun Gothic, Noto Sans KR, Arial, sans-serif" ><tspan x="105" y="177.7" font-size="3.1" font-weight="750">회전판으로 확인</tspan></text>
<rect x="140.5" y="104.5" width="63" height="88" rx="6" fill="#e5f2ff" stroke="#293241" stroke-width="0.32"/>
<rect x="142.9" y="106.9" width="58.2" height="83.2" rx="4.6" fill="none" stroke="#ffffff" stroke-width="1.15"/>
<rect x="144.7" y="108.7" width="54.6" height="79.6" rx="3.8" fill="none" stroke="#8ecae6" stroke-width="0.45"/>
<line x1="140.5" y1="104.5" x2="203.5" y2="104.5" stroke="#ff5d8f" stroke-width="0.25" stroke-dasharray="1 1"/>
<line x1="140.5" y1="192.5" x2="203.5" y2="192.5" stroke="#ff5d8f" stroke-width="0.25" stroke-dasharray="1 1"/>
<line x1="140.5" y1="104.5" x2="140.5" y2="192.5" stroke="#ff5d8f" stroke-width="0.25" stroke-dasharray="1 1"/>
<line x1="203.5" y1="104.5" x2="203.5" y2="192.5" stroke="#ff5d8f" stroke-width="0.25" stroke-dasharray="1 1"/>
<path d="M 148.5 174.95 L 149.089 175.911 L 150.05 176.5 L 149.089 177.089 L 148.5 178.05 L 147.911 177.089 L 146.95 176.5 L 147.911 175.911 Z" fill="#8ecae6" fill-opacity="0.82"/>
<text x="195.5" y="179.5" text-anchor="middle" dominant-baseline="middle" font-family="Malgun Gothic, Noto Sans KR, Arial, sans-serif" font-size="4.5" font-weight="800" fill="#8ecae6" fill-opacity="0.86" transform="rotate(12 195.5 179.5)">♬</text>
<rect x="146.5" y="111.5" width="31" height="7.6" rx="3.8" fill="#ffffff" fill-opacity="0.8" stroke="#8ecae6" stroke-width="0.25"/>
<text text-anchor="start" dominant-baseline="middle" fill="#2f80ed" font-family="Malgun Gothic, Noto Sans KR, Arial, sans-serif" ><tspan x="149.9" y="115.4" font-size="3.1" font-weight="850">중급 06</tspan></text>
<circle cx="191.5" cy="116.5" r="7.3" fill="#ffffff" fill-opacity="0.82" stroke="#2f80ed" stroke-width="0.32"/>
<path d="M 185.4 110.15 L 185.951 111.049 L 186.85 111.6 L 185.951 112.151 L 185.4 113.05 L 184.849 112.151 L 183.95 111.6 L 184.849 111.049 Z" fill="#8ecae6" fill-opacity="0.8"/>
<text text-anchor="middle" dominant-baseline="middle" fill="#2f80ed" font-family="Malgun Gothic, Noto Sans KR, Arial, sans-serif" ><tspan x="191.5" y="116.5" font-size="3" font-weight="900">5도</tspan></text>
<rect x="148.7" y="128.5" width="46.6" height="34" rx="5.5" fill="#ffffff" fill-opacity="0.5" stroke="#ffffff" stroke-width="0.35"/>
<text text-anchor="middle" dominant-baseline="middle" fill="#293241" font-family="Malgun Gothic, Noto Sans KR, Arial, sans-serif" ><tspan x="172" y="139.95" font-size="5.1" font-weight="800">F minor의</tspan><tspan x="172" y="147.05" font-size="5.1" font-weight="800">관계장조는?</tspan></text>
<rect x="149.5" y="172.5" width="45" height="10" rx="5" fill="#ffffff" fill-opacity="0.85" stroke="#2f80ed" stroke-width="0.3"/>
<text text-anchor="middle" dominant-baseline="middle" fill="#2f80ed" font-family="Malgun Gothic, Noto Sans KR, Arial, sans-serif" ><tspan x="172" y="177.7" font-size="3.1" font-weight="750">회전판으로 확인</tspan></text>
<rect x="6.5" y="196.5" width="63" height="88" rx="6" fill="#e5f2ff" stroke="#293241" stroke-width="0.32"/>
<rect x="8.9" y="198.9" width="58.2" height="83.2" rx="4.6" fill="none" stroke="#ffffff" stroke-width="1.15"/>
<rect x="10.7" y="200.7" width="54.6" height="79.6" rx="3.8" fill="none" stroke="#8ecae6" stroke-width="0.45"/>
<line x1="6.5" y1="196.5" x2="69.5" y2="196.5" stroke="#ff5d8f" stroke-width="0.25" stroke-dasharray="1 1"/>
<line x1="6.5" y1="284.5" x2="69.5" y2="284.5" stroke="#ff5d8f" stroke-width="0.25" stroke-dasharray="1 1"/>
<line x1="6.5" y1="196.5" x2="6.5" y2="284.5" stroke="#ff5d8f" stroke-width="0.25" stroke-dasharray="1 1"/>
<line x1="69.5" y1="196.5" x2="69.5" y2="284.5" stroke="#ff5d8f" stroke-width="0.25" stroke-dasharray="1 1"/>
<path d="M 14.5 266.95 L 15.089 267.911 L 16.05 268.5 L 15.089 269.089 L 14.5 270.05 L 13.911 269.089 L 12.95 268.5 L 13.911 267.911 Z" fill="#8ecae6" fill-opacity="0.82"/>
<text x="61.5" y="271.5" text-anchor="middle" dominant-baseline="middle" font-family="Malgun Gothic, Noto Sans KR, Arial, sans-serif" font-size="4.5" font-weight="800" fill="#8ecae6" fill-opacity="0.86" transform="rotate(-10 61.5 271.5)">♪</text>
<rect x="12.5" y="203.5" width="31" height="7.6" rx="3.8" fill="#ffffff" fill-opacity="0.8" stroke="#8ecae6" stroke-width="0.25"/>
<text text-anchor="start" dominant-baseline="middle" fill="#2f80ed" font-family="Malgun Gothic, Noto Sans KR, Arial, sans-serif" ><tspan x="15.9" y="207.4" font-size="3.1" font-weight="850">중급 07</tspan></text>
<circle cx="57.5" cy="208.5" r="7.3" fill="#ffffff" fill-opacity="0.82" stroke="#2f80ed" stroke-width="0.32"/>
<path d="M 51.4 202.15 L 51.951 203.049 L 52.85 203.6 L 51.951 204.151 L 51.4 205.05 L 50.849 204.151 L 49.95 203.6 L 50.849 203.049 Z" fill="#8ecae6" fill-opacity="0.8"/>
<text text-anchor="middle" dominant-baseline="middle" fill="#2f80ed" font-family="Malgun Gothic, Noto Sans KR, Arial, sans-serif" ><tspan x="57.5" y="208.5" font-size="3" font-weight="900">5도</tspan></text>
<rect x="14.7" y="220.5" width="46.6" height="34" rx="5.5" fill="#ffffff" fill-opacity="0.5" stroke="#ffffff" stroke-width="0.35"/>
<text text-anchor="middle" dominant-baseline="middle" fill="#293241" font-family="Malgun Gothic, Noto Sans KR, Arial, sans-serif" ><tspan x="38" y="228.4" font-size="5.1" font-weight="800">C 장조에서 A</tspan><tspan x="38" y="235.5" font-size="5.1" font-weight="800">장조로 조옮김:</tspan><tspan x="38" y="242.6" font-size="5.1" font-weight="800">방향과 칸 수</tspan></text>
<rect x="15.5" y="264.5" width="45" height="10" rx="5" fill="#ffffff" fill-opacity="0.85" stroke="#2f80ed" stroke-width="0.3"/>
<text text-anchor="middle" dominant-baseline="middle" fill="#2f80ed" font-family="Malgun Gothic, Noto Sans KR, Arial, sans-serif" ><tspan x="38" y="269.7" font-size="3.1" font-weight="750">회전판으로 확인</tspan></text>
<rect x="73.5" y="196.5" width="63" height="88" rx="6" fill="#e5f2ff" stroke="#293241" stroke-width="0.32"/>
<rect x="75.9" y="198.9" width="58.2" height="83.2" rx="4.6" fill="none" stroke="#ffffff" stroke-width="1.15"/>
<rect x="77.7" y="200.7" width="54.6" height="79.6" rx="3.8" fill="none" stroke="#8ecae6" stroke-width="0.45"/>
<line x1="73.5" y1="196.5" x2="136.5" y2="196.5" stroke="#ff5d8f" stroke-width="0.25" stroke-dasharray="1 1"/>
<line x1="73.5" y1="284.5" x2="136.5" y2="284.5" stroke="#ff5d8f" stroke-width="0.25" stroke-dasharray="1 1"/>
<line x1="73.5" y1="196.5" x2="73.5" y2="284.5" stroke="#ff5d8f" stroke-width="0.25" stroke-dasharray="1 1"/>
<line x1="136.5" y1="196.5" x2="136.5" y2="284.5" stroke="#ff5d8f" stroke-width="0.25" stroke-dasharray="1 1"/>
<path d="M 81.5 266.95 L 82.089 267.911 L 83.05 268.5 L 82.089 269.089 L 81.5 270.05 L 80.911 269.089 L 79.95 268.5 L 80.911 267.911 Z" fill="#8ecae6" fill-opacity="0.82"/>
<text x="128.5" y="271.5" text-anchor="middle" dominant-baseline="middle" font-family="Malgun Gothic, Noto Sans KR, Arial, sans-serif" font-size="4.5" font-weight="800" fill="#8ecae6" fill-opacity="0.86" transform="rotate(12 128.5 271.5)">♬</text>
<rect x="79.5" y="203.5" width="31" height="7.6" rx="3.8" fill="#ffffff" fill-opacity="0.8" stroke="#8ecae6" stroke-width="0.25"/>
<text text-anchor="start" dominant-baseline="middle" fill="#2f80ed" font-family="Malgun Gothic, Noto Sans KR, Arial, sans-serif" ><tspan x="82.9" y="207.4" font-size="3.1" font-weight="850">중급 08</tspan></text>
<circle cx="124.5" cy="208.5" r="7.3" fill="#ffffff" fill-opacity="0.82" stroke="#2f80ed" stroke-width="0.32"/>
<path d="M 118.4 202.15 L 118.951 203.049 L 119.85 203.6 L 118.951 204.151 L 118.4 205.05 L 117.849 204.151 L 116.95 203.6 L 117.849 203.049 Z" fill="#8ecae6" fill-opacity="0.8"/>
<text text-anchor="middle" dominant-baseline="middle" fill="#2f80ed" font-family="Malgun Gothic, Noto Sans KR, Arial, sans-serif" ><tspan x="124.5" y="208.5" font-size="3" font-weight="900">5도</tspan></text>
<rect x="81.7" y="220.5" width="46.6" height="34" rx="5.5" fill="#ffffff" fill-opacity="0.5" stroke="#ffffff" stroke-width="0.35"/>
<text text-anchor="middle" dominant-baseline="middle" fill="#293241" font-family="Malgun Gothic, Noto Sans KR, Arial, sans-serif" ><tspan x="105" y="231.95" font-size="5.1" font-weight="800">D♭ 장조의</tspan><tspan x="105" y="239.05" font-size="5.1" font-weight="800">관계단조는?</tspan></text>
<rect x="82.5" y="264.5" width="45" height="10" rx="5" fill="#ffffff" fill-opacity="0.85" stroke="#2f80ed" stroke-width="0.3"/>
<text text-anchor="middle" dominant-baseline="middle" fill="#2f80ed" font-family="Malgun Gothic, Noto Sans KR, Arial, sans-serif" ><tspan x="105" y="269.7" font-size="3.1" font-weight="750">회전판으로 확인</tspan></text>
<rect x="140.5" y="196.5" width="63" height="88" rx="6" fill="#e5f2ff" stroke="#293241" stroke-width="0.32"/>
<rect x="142.9" y="198.9" width="58.2" height="83.2" rx="4.6" fill="none" stroke="#ffffff" stroke-width="1.15"/>
<rect x="144.7" y="200.7" width="54.6" height="79.6" rx="3.8" fill="none" stroke="#8ecae6" stroke-width="0.45"/>
<line x1="140.5" y1="196.5" x2="203.5" y2="196.5" stroke="#ff5d8f" stroke-width="0.25" stroke-dasharray="1 1"/>
<line x1="140.5" y1="284.5" x2="203.5" y2="284.5" stroke="#ff5d8f" stroke-width="0.25" stroke-dasharray="1 1"/>
<line x1="140.5" y1="196.5" x2="140.5" y2="284.5" stroke="#ff5d8f" stroke-width="0.25" stroke-dasharray="1 1"/>
<line x1="203.5" y1="196.5" x2="203.5" y2="284.5" stroke="#ff5d8f" stroke-width="0.25" stroke-dasharray="1 1"/>
<path d="M 148.5 266.95 L 149.089 267.911 L 150.05 268.5 L 149.089 269.089 L 148.5 270.05 L 147.911 269.089 L 146.95 268.5 L 147.911 267.911 Z" fill="#8ecae6" fill-opacity="0.82"/>
<text x="195.5" y="271.5" text-anchor="middle" dominant-baseline="middle" font-family="Malgun Gothic, Noto Sans KR, Arial, sans-serif" font-size="4.5" font-weight="800" fill="#8ecae6" fill-opacity="0.86" transform="rotate(-10 195.5 271.5)">♪</text>
<rect x="146.5" y="203.5" width="31" height="7.6" rx="3.8" fill="#ffffff" fill-opacity="0.8" stroke="#8ecae6" stroke-width="0.25"/>
<text text-anchor="start" dominant-baseline="middle" fill="#2f80ed" font-family="Malgun Gothic, Noto Sans KR, Arial, sans-serif" ><tspan x="149.9" y="207.4" font-size="3.1" font-weight="850">중급 09</tspan></text>
<circle cx="191.5" cy="208.5" r="7.3" fill="#ffffff" fill-opacity="0.82" stroke="#2f80ed" stroke-width="0.32"/>
<path d="M 185.4 202.15 L 185.951 203.049 L 186.85 203.6 L 185.951 204.151 L 185.4 205.05 L 184.849 204.151 L 183.95 203.6 L 184.849 203.049 Z" fill="#8ecae6" fill-opacity="0.8"/>
<text text-anchor="middle" dominant-baseline="middle" fill="#2f80ed" font-family="Malgun Gothic, Noto Sans KR, Arial, sans-serif" ><tspan x="191.5" y="208.5" font-size="3" font-weight="900">5도</tspan></text>
<rect x="148.7" y="220.5" width="46.6" height="34" rx="5.5" fill="#ffffff" fill-opacity="0.5" stroke="#ffffff" stroke-width="0.35"/>
<text text-anchor="middle" dominant-baseline="middle" fill="#293241" font-family="Malgun Gothic, Noto Sans KR, Arial, sans-serif" ><tspan x="172" y="231.95" font-size="5.1" font-weight="800">E 장조의 조표와</tspan><tspan x="172" y="239.05" font-size="5.1" font-weight="800">관계단조를 찾으세요.</tspan></text>
<rect x="149.5" y="264.5" width="45" height="10" rx="5" fill="#ffffff" fill-opacity="0.85" stroke="#2f80ed" stroke-width="0.3"/>
<text text-anchor="middle" dominant-baseline="middle" fill="#2f80ed" font-family="Malgun Gothic, Noto Sans KR, Arial, sans-serif" ><tspan x="172" y="269.7" font-size="3.1" font-weight="750">회전판으로 확인</tspan></text>
<g>
    <rect x="26" y="286.5" width="158" height="7" rx="3.5" fill="#ffffff" fill-opacity="1" stroke="#ffd6e7" stroke-width="0.35"/>
    <text text-anchor="middle" dominant-baseline="middle" fill="#5b6375" font-family="Malgun Gothic, Noto Sans KR, Arial, sans-serif" ><tspan x="105" y="290.15" font-size="2.85" font-weight="800">카드 크기 63 x 88mm / 재단선 기준으로 자르세요 / 실제 크기 100%</tspan></text>
  </g>
</svg>